<svg width="64" height="64" viewBox="0 0 64 64" fill="none" xmlns="http://www.w3.org/2000/svg">
    <rect width="64" height="64" rx="12" fill="#1E40AF"/>
    <path d="M24 20C26.2091 20 28 21.7909 28 24V40C28 42.2091 26.2091 44 24 44H22C19.7909 44 18 42.2091 18 40V24C18 21.7909 19.7909 20 22 20H24Z" fill="#F59E0B"/>
    <path d="M46 20C48.2091 20 50 21.7909 50 24V40C50 42.2091 48.2091 44 46 44H44C41.7909 44 40 42.2091 40 40V24C40 21.7909 41.7909 20 44 20H46Z" fill="#F59E0B" fill-opacity="0.7"/>
    <path d="M35 20C37.2091 20 39 21.7909 39 24V40C39 42.2091 37.2091 44 35 44H33C30.7909 44 29 42.2091 29 40V24C29 21.7909 30.7909 20 33 20H35Z" fill="#F59E0B" fill-opacity="0.4"/>
</svg>
